# xmcd
#
# Track frame offsets:
#	150
#	15517
#	29047
#	49367
#	65607
#	83660
#	97890
#	118297
#	131205
#	147570
#	162022
#	181562
#	193787
#	213697
#	228507
#	240220
#
# Disc length: 3500 seconds
#
# Revision: 0
# Processed by: cddbd v1.5.1PL2 Copyright (c) Steve Scherf et al.
# Submitted via: dBpowerAMP V4.0
#
DISCID=e10daa10
DTITLE=JAMES TAYLOR - TAYLOR MADE - GREATEST HITS
DYEAR=1992
DGENRE=Easy Listening
TTITLE0=FIRE AND RAIN
TTITLE1=MEXICO
TTITLE2=YOU'VE GOT A FRIEND
TTITLE3=HOW SWEET IT IS
TTITLE4=CAROLINA IN MY MIND
TTITLE5=SOMETHING IN THE WAY SHE MOVES
TTITLE6=SHOWER THE PEOPLE
TTITLE7=SWEET BABY JAMES
TTITLE8=THAT'S WHY I'M HERE
TTITLE9=EVERYDAY
TTITLE10=UP ON THE ROOF
TTITLE11=YOUR SMILING FACE
TTITLE12=HER TOWN TOO
TTITLE13=HANDY MAN
TTITLE14=DON'T LET ME BE LONELY TONIGHT
TTITLE15=ONLY A DREAM IN RIO
EXTD=	
EXTT0=
EXTT1=
EXTT2=
EXTT3=
EXTT4=
EXTT5=
EXTT6=
EXTT7=
EXTT8=
EXTT9=
EXTT10=
EXTT11=
EXTT12=
EXTT13=
EXTT14=
EXTT15=
PLAYORDER=
